<svg xmlns="http://www.w3.org/2000/svg" viewBox="0 0 64 64">
  <defs>
    <linearGradient id="g" x1="0" y1="0" x2="1" y2="1">
      <stop offset="0" stop-color="#de0f66"/>
      <stop offset="1" stop-color="#5a08ea"/>
    </linearGradient>
  </defs>
  <rect width="64" height="64" rx="16" fill="url(#g)"/>
  <g transform="translate(14 14) scale(1.5)" fill="none" stroke="#ffffff" stroke-width="2" stroke-linecap="round" stroke-linejoin="round">
    <path d="M12 5c.67 0 1.35.09 2 .26 1.78-2 5.03-2.84 6.42-2.26 1.4.58-.42 7-.42 7 .57 1.07 1 2.24 1 3.44C21 17.9 16.97 21 12 21s-9-3-9-7.56c0-1.25.5-2.4 1-3.44 0 0-1.89-6.42-.5-7 1.39-.58 4.72.23 6.5 2.23A9.04 9.04 0 0 1 12 5Z"/>
    <path d="M8 14v.5"/>
    <path d="M16 14v.5"/>
    <path d="M11.25 16.25h1.5L12 17z"/>
  </g>
</svg>
